HIERARCHY
ROOT hip
{
	OFFSET 0.000000 0.000000 0.000000 
	CHANNELS 6 Xposition Yposition Zposition Zrotation Xrotation Yrotation
	JOINT abdomen
	{
		OFFSET 0.000000 3.402643 0.000000 
		CHANNELS 3 Zrotation Xrotation Yrotation
		JOINT chest
		{
			OFFSET 0.000000 8.438565 -0.680529 
			CHANNELS 3 Zrotation Xrotation Yrotation
			JOINT neck
			{
				OFFSET 0.000000 10.207942 -0.272212 
				CHANNELS 3 Zrotation Xrotation Yrotation
				JOINT head
				{
					OFFSET 0.000000 3.130431 0.000000 
					CHANNELS 3 Zrotation Xrotation Yrotation
					End Site
					{
						OFFSET 0.000000 3.130435 0.000000 
					}
				}
			}
			JOINT lCollar
			{
				OFFSET 3.470700 6.669187 -0.816635 
				CHANNELS 3 Zrotation Xrotation Yrotation
				JOINT lShldr
				{
					OFFSET 3.198488 0.000000 0.000000 
					CHANNELS 3 Zrotation Xrotation Yrotation
					JOINT lForeArm
					{
						OFFSET 10.139888 0.000000 0.000000 
						CHANNELS 3 Zrotation Xrotation Yrotation
						JOINT lHand
						{
							OFFSET 8.370511 0.000000 0.000000 
							CHANNELS 3 Zrotation Xrotation Yrotation
							End Site
							{
								OFFSET 4.083176 0.000000 0.000000 
							}
						}
					}
				}
			}
			JOINT rCollar
			{
				OFFSET -3.470700 6.669187 -0.816635 
				CHANNELS 3 Zrotation Xrotation Yrotation
				JOINT rShldr
				{
					OFFSET -3.198488 0.000000 0.000000 
					CHANNELS 3 Zrotation Xrotation Yrotation
					JOINT rForeArm
					{
						OFFSET -10.139888 0.000000 0.000000 
						CHANNELS 3 Zrotation Xrotation Yrotation
						JOINT rHand
						{
							OFFSET -8.370511 0.000000 0.000000 
							CHANNELS 3 Zrotation Xrotation Yrotation
							End Site
							{
								OFFSET -4.083176 0.000000 0.000000 
							}
						}
					}
				}
			}
		}
	}
	JOINT lThigh
	{
		OFFSET 5.308129 -1.633274 1.361059 
		CHANNELS 3 Zrotation Xrotation Yrotation
		JOINT lShin
		{
			OFFSET -2.041588 -20.007561 0.000000 
			CHANNELS 3 Zrotation Xrotation Yrotation
			JOINT lFoot
			{
				OFFSET 0.000000 -19.190928 -1.224953 
				CHANNELS 3 Zrotation Xrotation Yrotation
				End Site
				{
					OFFSET 0.000000 -2.449906 4.627600 
				}
			}
		}
	}
	JOINT rThigh
	{
		OFFSET -5.308129 -1.633274 1.361059 
		CHANNELS 3 Zrotation Xrotation Yrotation
		JOINT rShin
		{
			OFFSET 2.041588 -20.007561 0.000000 
			CHANNELS 3 Zrotation Xrotation Yrotation
			JOINT rFoot
			{
				OFFSET 0.000000 -19.190928 -1.224953 
				CHANNELS 3 Zrotation Xrotation Yrotation
				End Site
				{
					OFFSET 0.000000 -2.449906 4.627600 
				}
			}
		}
	}
}
MOTION
Frames: 9
Frame Time: 0.033333
-0.591293 14.797416 -5.926122 -2.010920 -54.006653 9.759483 -0.000000 -0.000002 -0.000000 35.976414 71.190971 -36.836761 0.936644 7.909103 0.115246 -0.954937 -15.993991 -0.145955 -2.000757 -0.069240 1.990978 -67.460930 -15.603799 -21.330111 5.770760 6.288437 -78.372345 28.975466 60.453087 -46.546883 1.990970 -0.069577 -2.000746 70.264717 -10.791622 27.418957 -14.173874 -3.355768 104.875648 38.179214 57.612617 -14.682270 11.470122 -39.188065 47.277950 -158.380051 65.432709 147.389206 -37.588013 39.601955 -6.853342 -10.917270 -31.193432 -56.408215 154.612961 50.540642 -128.083588 31.884657 21.948816 15.944612 
-0.588041 14.515783 -5.880390 -1.674144 -53.484383 10.158270 -0.000000 -0.000002 -0.000000 35.348629 70.785149 -36.450867 1.341882 8.210664 -0.064494 -0.954937 -15.993991 -0.145955 -2.000757 -0.069240 1.990978 -68.510323 -15.639362 -22.343805 5.743148 6.426494 -77.063278 31.498312 61.360252 -50.035603 1.990970 -0.069577 -2.000746 82.890579 -18.857632 40.626156 -14.280732 -2.856500 102.903801 29.015657 31.371689 -8.862442 11.699059 -38.727844 48.216385 -157.708084 66.080635 146.800659 -39.751507 41.911522 -6.384854 -11.273604 -30.059217 -58.459545 154.405685 50.783577 -127.894234 31.128675 23.580709 15.604907 
-0.580198 14.161805 -5.834724 -1.411500 -52.989693 10.464592 -0.000000 -0.000002 -0.000000 30.881348 68.364990 -32.527328 1.224810 8.630868 0.177703 -0.954937 -15.993991 -0.145955 -2.000757 -0.069240 1.990978 -70.167839 -14.816346 -23.450817 5.653178 6.738139 -74.014496 26.210436 63.659985 -44.929996 1.990970 -0.069577 -2.000746 89.918007 -21.444571 42.789768 -14.496566 -1.551556 97.841087 19.221334 14.732368 -6.170401 11.991862 -38.969761 49.677700 -158.084396 65.742477 147.136078 -37.577579 41.498573 -6.574474 -12.031101 -29.113022 -60.620468 154.782867 50.414276 -128.191620 27.156364 22.543314 14.714018 
-0.553992 13.819287 -5.789308 -1.320271 -52.658676 10.571363 -0.000000 -0.000002 -0.000000 26.125519 64.981735 -28.375868 0.761457 9.061711 0.612485 -0.954937 -15.993991 -0.145955 -2.000757 -0.069240 1.990978 -71.916138 -13.911125 -23.917006 5.550228 7.042252 -70.943001 15.770377 65.426575 -33.945713 1.990970 -0.069577 -2.000746 87.174980 -19.335089 26.859522 -14.602141 0.678953 89.369583 2.398265 13.295547 -1.595508 12.089543 -40.047886 50.796326 -159.146973 64.720711 148.078491 -33.211014 38.821289 -6.792424 -12.790870 -28.705112 -62.153564 155.509354 49.656055 -128.755554 22.048985 19.753132 13.580567 
-0.495651 13.597980 -5.744361 -1.560321 -52.616692 10.293111 -0.000000 -0.000002 -0.000000 22.774443 61.921619 -25.343575 0.108882 9.394507 0.939258 -0.954937 -15.993991 -0.145955 -2.000757 -0.069240 1.990978 -73.217270 -13.460665 -22.950005 5.505743 7.129664 -69.988342 5.070997 65.242439 -22.242777 1.990970 -0.069577 -2.000746 82.177071 -12.601986 3.662569 -14.147767 4.056463 76.401665 -20.943977 16.120070 7.198504 11.655775 -41.989601 50.834335 -160.453369 63.336670 149.271179 -28.515299 34.443153 -6.333293 -13.237188 -28.941151 -62.662189 156.344635 48.680408 -129.405640 17.607386 16.375227 12.562677 
-0.391403 13.639656 -5.700076 -2.254192 -52.966949 9.459745 -0.000000 -0.000002 -0.000000 21.461622 60.556065 -23.799654 -0.594156 9.540507 0.879633 -0.954937 -15.993991 -0.145955 -2.000757 -0.069240 1.990978 -73.492584 -13.818349 -19.704119 5.618375 6.816681 -73.197243 0.714923 63.184944 -16.885891 1.990970 -0.069577 -2.000746 80.093552 -4.394099 -16.416796 -12.893106 7.277409 63.108494 -43.548477 17.271736 16.886198 10.283317 -44.647549 49.008667 -161.550690 62.053345 150.214752 -25.180683 29.133512 -4.551785 -13.217286 -29.646137 -61.816010 157.069351 47.781651 -129.941238 15.382604 13.648226 12.433700 
-0.257636 13.811423 -5.701727 -3.614774 -54.281876 7.932984 -0.000000 -0.000002 -0.000000 21.620008 60.691864 -23.147255 -1.486024 9.684299 0.484408 -0.954937 -15.993991 -0.145955 -2.000757 -0.069240 1.990978 -71.744240 -15.681190 -12.239552 5.875587 5.809279 -83.017982 1.341288 57.266556 -15.485205 1.990970 -0.069577 -2.000746 80.201302 0.069700 -26.855490 -11.602189 9.305779 53.798023 -56.288040 16.158375 20.798727 15.051635 -48.712387 48.826241 -164.460754 57.842789 152.718552 -21.874207 24.853947 -2.798499 -12.680677 -32.306255 -59.182678 158.125534 46.384045 -130.746231 15.014620 9.432803 12.488856 
-0.115418 13.925223 -5.768535 -5.785013 -56.682262 5.590560 -0.000000 -0.000002 -0.000000 22.180185 61.084728 -22.618214 -2.716835 9.969468 0.031233 -0.954937 -15.993991 -0.145955 -2.000757 -0.069240 1.990978 -67.478828 -18.847795 -1.898719 5.936493 4.351226 -96.682388 2.259014 46.826839 -12.210061 1.990970 -0.069577 -2.000746 80.301674 0.423561 -28.848516 -12.439319 8.090410 59.525841 -51.983734 22.202065 8.453084 21.603781 -54.293125 48.468952 -167.420853 52.433922 155.120789 -17.954981 20.140093 0.564977 -11.515208 -37.617046 -54.933220 159.766342 44.201050 -131.923141 15.432083 2.470758 11.080235 
0.041999 14.051938 -5.861573 -8.795595 -59.558304 2.371590 -0.000000 -0.000002 -0.000000 22.974422 61.671394 -22.124537 -4.149465 10.334753 -0.465960 -0.954937 -15.993991 -0.145955 -2.000757 -0.069240 1.990978 -61.024284 -22.537010 8.134734 5.673211 2.989066 -109.741264 2.644344 34.611374 -7.208549 1.990970 -0.069577 -2.000746 80.143204 -0.477376 -30.098803 -13.003280 7.076049 63.991009 -47.019848 26.019905 -2.673494 30.373590 -60.943829 48.798477 -169.820923 46.789524 156.926178 -13.468904 16.925114 4.668867 -8.773011 -43.919357 -49.127380 161.345627 41.792419 -133.016235 16.882977 -4.897921 8.812115 
